<?xml version="1.0" encoding="utf-8"?>
<!-- Generator: Adobe Illustrator 21.1.0, SVG Export Plug-In . SVG Version: 6.00 Build 0)  -->
<svg version="1.1" id="Ebene_1" xmlns="http://www.w3.org/2000/svg" xmlns:xlink="http://www.w3.org/1999/xlink" x="0px" y="0px"
	 viewBox="0 0 100 100" style="enable-background:new 0 0 100 100;" xml:space="preserve">
<g>
	<path d="M83.8,56.5c-9.2,2.1-21.2,3.2-33.8,3.2c-12.7,0-24.6-1.1-33.8-3.2l-2.7,20.8c-0.4,2.8,1.6,5.4,4.4,5.8
		c5.6,0.7,13.8,1.3,21,1.6c1.8,0.1,3.5-0.6,4.8-1.9l2.3-2.3c1.2-1.2,2.8-1.9,4.5-1.9s3.3,0.7,4.5,1.9l2.2,2.3c1.3,1.3,3,2,4.8,1.9
		c6.8-0.3,14.8-0.8,20.2-1.5c2.8-0.4,4.8-2.9,4.4-5.7L83.8,56.5z M41.5,72.4c-1.8,1.3-4.8,3-8.2,3s-6.4-1.7-8.2-3
		c-1-0.7-1-2.2,0-2.9c1.8-1.3,4.8-3,8.2-3s6.4,1.7,8.2,3C42.4,70.2,42.4,71.8,41.5,72.4z M74.8,72.4c-1.8,1.3-4.8,3-8.2,3
		c-3.4,0-6.4-1.7-8.2-3c-1-0.7-1-2.2,0-2.9c1.8-1.3,4.8-3,8.2-3s6.4,1.7,8.2,3C75.8,70.2,75.8,71.8,74.8,72.4z"/>
	<path d="M83.3,36l1.5,6.3l-4.4,1L75.2,21c-1-4.3-5.3-7-9.6-6l-8.5,2c-4.7,1.1-9.6,1.1-14.3,0l-8.5-2c-4.3-1-8.6,1.7-9.6,6
		l-5.2,22.2l-4.4-1l1.5-6.3c-8.8,2-14.2,4.8-14.2,8c0,6.2,21.3,11.2,47.5,11.2s47.5-5,47.5-11.2C97.5,40.8,92.1,38,83.3,36z"/>
</g>
</svg>
