<?xml version="1.0" encoding="utf-8"?>
<!-- Generator: Adobe Illustrator 21.1.0, SVG Export Plug-In . SVG Version: 6.00 Build 0)  -->
<svg version="1.1" id="Ebene_1" xmlns="http://www.w3.org/2000/svg" xmlns:xlink="http://www.w3.org/1999/xlink" x="0px" y="0px"
	 viewBox="0 0 100 100" style="enable-background:new 0 0 100 100;" xml:space="preserve">
<g>
	<path d="M57.9,51.6c-1.6,0-3,0.8-3.9,1.4c-0.5,0.3-0.5,1,0,1.4c0.8,0.6,2.2,1.4,3.9,1.4c1.6,0,3-0.8,3.8-1.4c0.5-0.3,0.5-1,0-1.4
		C60.9,52.5,59.5,51.6,57.9,51.6z"/>
	<path d="M42.1,51.6c-1.6,0-3,0.8-3.8,1.4c-0.5,0.3-0.5,1,0,1.4c0.8,0.6,2.2,1.4,3.8,1.4s3-0.8,3.8-1.4c0.5-0.3,0.5-1,0-1.4
		C45.1,52.5,43.7,51.6,42.1,51.6z"/>
	<path d="M16.1,17.7v18.6c0,17.4,8.4,33.9,22.4,44.3L50,89l11.5-8.4c14-10.3,22.4-26.9,22.4-44.3V17.7L50,10.2L16.1,17.7z
		 M65.2,59.4c-2.5,0.3-6.3,0.6-9.5,0.7c-0.8,0-1.7-0.3-2.3-0.9l-1-1.1c-0.6-0.6-1.3-0.9-2.1-0.9s-1.6,0.3-2.1,0.9L47,59.3
		c-0.6,0.6-1.4,0.9-2.3,0.9c-3.4-0.2-7.3-0.4-9.9-0.7c-1.3-0.2-2.3-1.4-2.1-2.7L34,47c4.3,1,10,1.5,15.9,1.5s11.6-0.5,16-1.5
		l1.3,9.8C67.4,58,66.5,59.2,65.2,59.4z M53.4,28.3l4-0.9c2-0.5,4,0.8,4.5,2.8l2.4,10.5l2.1-0.5l-0.7-3c4.1,1,6.7,2.3,6.7,3.8
		c0,2.9-10,5.3-22.4,5.3S27.6,43.9,27.6,41c0-1.5,2.6-2.8,6.7-3.8l-0.7,3l2.1,0.5l2.4-10.5c0.5-2,2.5-3.3,4.5-2.8l4,0.9
		C48.8,28.8,51.2,28.8,53.4,28.3z"/>
	<path d="M86.2,10L51.6,2.4c-0.5-0.1-1-0.2-1.6-0.2c-0.5,0-1.1,0.1-1.6,0.2L13.8,10c-3.3,0.7-5.7,3.7-5.7,7.1v19.2
		c0,19.9,9.6,38.9,25.7,50.7l11.9,8.8c1.3,0.9,2.7,1.4,4.3,1.4s3-0.5,4.3-1.4L66.2,87c16.1-11.8,25.7-30.8,25.7-50.7V17.1
		C91.9,13.7,89.5,10.7,86.2,10z M86.5,36.3c0,18.3-8.7,35.6-23.5,46.4l-11.9,8.8c-0.3,0.2-0.7,0.4-1.1,0.4c-0.4,0-0.8-0.1-1.1-0.4
		l-12-8.8C22.2,71.8,13.5,54.6,13.5,36.3V17.1c0-0.9,0.6-1.7,1.5-1.9l34.6-7.6c0.1,0,0.3,0,0.4,0c0.1,0,0.3,0,0.4,0L85,15.2
		c0.9,0.2,1.5,1,1.5,1.9V36.3z"/>
</g>
<path d="M49.4,49.7c0.2,0,0.4,0,0.6,0s0.4,0,0.6-0.1C50.2,49.8,49.8,49.8,49.4,49.7z M49.4,49.7c0.2,0,0.4,0,0.6,0s0.4,0,0.6-0.1
	C50.2,49.8,49.8,49.8,49.4,49.7z M49.4,49.7c0.2,0,0.4,0,0.6,0s0.4,0,0.6-0.1C50.2,49.8,49.8,49.8,49.4,49.7z"/>
</svg>
